<svg xmlns="http://www.w3.org/2000/svg" xmlns:xlink="http://www.w3.org/1999/xlink" width="1080" zoomAndPan="magnify" viewBox="0 0 810 809.999993" height="1080" preserveAspectRatio="xMidYMid meet" version="1.2"><g id="85253deb8d"><path style=" stroke:none;fill-rule:nonzero;fill:#147bd7;fill-opacity:1;" d="M 0 316.160156 C 15.808594 323.480469 31.800781 330.363281 47.984375 336.8125 C 64.164062 343.261719 80.511719 349.261719 97.019531 354.820312 C 113.527344 360.382812 130.175781 365.488281 146.960938 370.140625 C 163.746094 374.792969 180.648438 378.984375 197.660156 382.71875 C 214.675781 386.453125 231.78125 389.71875 248.972656 392.523438 C 266.164062 395.324219 283.417969 397.660156 300.738281 399.523438 C 318.058594 401.386719 335.414062 402.777344 352.808594 403.695312 C 370.203125 404.613281 387.613281 405.0625 405.03125 405.03125 C 392.730469 392.703125 380.101562 380.71875 367.148438 369.074219 C 354.195312 357.433594 340.9375 346.148438 327.371094 335.226562 C 313.808594 324.300781 299.957031 313.753906 285.820312 303.582031 C 271.679688 293.410156 257.277344 283.628906 242.609375 274.238281 C 227.941406 264.847656 213.03125 255.863281 197.875 247.28125 C 182.71875 238.699219 167.339844 230.535156 151.742188 222.789062 C 136.144531 215.042969 120.34375 207.726562 104.347656 200.835938 C 88.351562 193.945312 72.183594 187.496094 55.835938 181.484375 C 42.597656 202.089844 31.289062 223.707031 21.910156 246.332031 C 12.53125 268.957031 5.226562 292.234375 0 316.160156 Z M 0 316.160156 "/><path style=" stroke:none;fill-rule:nonzero;fill:#147bd7;fill-opacity:1;" d="M 55.902344 628.644531 C 72.25 622.636719 88.421875 616.191406 104.417969 609.304688 C 120.417969 602.417969 136.214844 595.101562 151.8125 587.359375 C 167.414062 579.613281 182.789062 571.449219 197.945312 562.867188 C 213.101562 554.285156 228.011719 545.296875 242.675781 535.902344 C 257.34375 526.507812 271.742188 516.722656 285.875 506.546875 C 300.011719 496.371094 313.855469 485.816406 327.417969 474.886719 C 340.976562 463.957031 354.226562 452.667969 367.171875 441.015625 C 380.121094 429.363281 392.738281 417.371094 405.03125 405.03125 C 387.613281 405.007812 370.207031 405.457031 352.8125 406.378906 C 335.417969 407.300781 318.058594 408.695312 300.742188 410.5625 C 283.421875 412.425781 266.167969 414.761719 248.976562 417.5625 C 231.785156 420.367188 214.679688 423.636719 197.667969 427.371094 C 180.652344 431.101562 163.753906 435.296875 146.964844 439.945312 C 130.179688 444.597656 113.53125 449.703125 97.023438 455.257812 C 80.515625 460.816406 64.167969 466.816406 47.988281 473.261719 C 31.804688 479.707031 15.808594 486.589844 0 493.902344 C 5.222656 517.847656 12.53125 541.136719 21.921875 563.773438 C 31.3125 586.410156 42.640625 608.035156 55.902344 628.644531 Z M 55.902344 628.644531 "/><path style=" stroke:none;fill-rule:nonzero;fill:#147bd7;fill-opacity:1;" d="M 316.09375 809.996094 C 323.402344 794.203125 330.28125 778.222656 336.722656 762.058594 C 343.164062 745.890625 349.164062 729.5625 354.71875 713.070312 C 360.273438 696.578125 365.378906 679.945312 370.03125 663.175781 C 374.683594 646.410156 378.875 629.523438 382.613281 612.527344 C 386.347656 595.53125 389.621094 578.445312 392.429688 561.269531 C 395.238281 544.097656 397.578125 526.859375 399.449219 509.554688 C 401.320312 492.253906 402.722656 474.914062 403.65625 457.539062 C 404.585938 440.160156 405.042969 422.769531 405.03125 405.367188 C 405.003906 422.769531 405.449219 440.164062 406.367188 457.542969 C 407.285156 474.925781 408.675781 492.269531 410.539062 509.574219 C 412.402344 526.878906 414.734375 544.121094 417.535156 561.296875 C 420.332031 578.476562 423.597656 595.566406 427.328125 612.566406 C 431.058594 629.566406 435.25 646.453125 439.898438 663.222656 C 444.546875 679.996094 449.652344 696.628906 455.207031 713.125 C 460.757812 729.621094 466.757812 745.949219 473.203125 762.121094 C 479.644531 778.289062 486.523438 794.269531 493.835938 810.0625 C 517.777344 804.851562 541.066406 797.554688 563.703125 788.175781 C 586.339844 778.792969 607.964844 767.480469 628.578125 754.226562 C 622.566406 737.882812 616.113281 721.710938 609.226562 705.714844 C 602.335938 689.71875 595.019531 673.921875 587.273438 658.320312 C 579.527344 642.722656 571.363281 627.347656 562.78125 612.191406 C 554.199219 597.035156 545.214844 582.121094 535.824219 567.453125 C 526.433594 552.785156 516.652344 538.382812 506.480469 524.246094 C 496.308594 510.109375 485.761719 496.257812 474.839844 482.691406 C 463.914062 469.125 452.632812 455.867188 440.988281 442.914062 C 429.34375 429.960938 417.359375 417.335938 405.03125 405.03125 C 392.703125 417.332031 380.714844 429.957031 369.070312 442.910156 C 357.425781 455.859375 346.144531 469.117188 335.21875 482.679688 C 324.292969 496.242188 313.742188 510.089844 303.570312 524.222656 C 293.394531 538.359375 283.613281 552.757812 274.21875 567.421875 C 264.824219 582.089844 255.835938 596.996094 247.253906 612.152344 C 238.667969 627.304688 230.5 642.679688 222.75 658.273438 C 215 673.871094 207.679688 689.664062 200.785156 705.65625 C 193.890625 721.648438 187.433594 737.816406 181.417969 754.160156 C 202.019531 767.410156 223.628906 778.726562 246.257812 788.109375 C 268.882812 797.488281 292.160156 804.785156 316.09375 809.996094 Z M 316.09375 809.996094 "/><path style=" stroke:none;fill-rule:nonzero;fill:#147bd7;fill-opacity:1;" d="M 493.898438 0 C 486.582031 15.792969 479.699219 31.773438 473.25 47.9375 C 466.800781 64.105469 460.796875 80.4375 455.238281 96.929688 C 449.679688 113.425781 444.570312 130.058594 439.917969 146.832031 C 435.265625 163.601562 431.074219 180.488281 427.339844 197.488281 C 423.605469 214.492188 420.339844 231.582031 417.535156 248.757812 C 414.734375 265.9375 412.402344 283.179688 410.539062 300.484375 C 408.675781 317.792969 407.285156 335.136719 406.367188 352.515625 C 405.445312 369.898438 405.003906 387.292969 405.03125 404.699219 C 405.042969 387.292969 404.578125 369.902344 403.644531 352.523438 C 402.710938 335.148438 401.308594 317.808594 399.433594 300.503906 C 397.558594 283.203125 395.214844 265.964844 392.402344 248.789062 C 389.59375 231.613281 386.316406 214.527344 382.578125 197.53125 C 378.839844 180.535156 374.644531 163.652344 369.988281 146.882812 C 365.332031 130.113281 360.226562 113.484375 354.667969 96.992188 C 349.109375 80.5 343.109375 64.171875 336.664062 48.003906 C 330.21875 31.839844 323.339844 15.859375 316.027344 0.0664062 C 292.09375 5.277344 268.816406 12.574219 246.191406 21.957031 C 223.5625 31.335938 201.953125 42.652344 181.351562 55.902344 C 187.363281 72.25 193.8125 88.425781 200.703125 104.421875 C 207.59375 120.417969 214.914062 136.214844 222.664062 151.816406 C 230.410156 167.414062 238.578125 182.789062 247.164062 197.945312 C 255.75 213.101562 264.742188 228.011719 274.136719 242.675781 C 283.53125 257.34375 293.320312 271.742188 303.5 285.875 C 313.679688 300.007812 324.234375 313.855469 335.167969 327.414062 C 346.097656 340.976562 357.390625 354.226562 369.042969 367.175781 C 380.695312 380.121094 392.691406 392.738281 405.03125 405.03125 C 417.367188 392.734375 429.355469 380.113281 441.003906 367.164062 C 452.652344 354.214844 463.941406 340.957031 474.867188 327.394531 C 485.792969 313.832031 496.34375 299.980469 506.519531 285.84375 C 516.691406 271.707031 526.472656 257.304688 535.863281 242.636719 C 545.253906 227.96875 554.238281 213.054688 562.820312 197.898438 C 571.398438 182.738281 579.558594 167.359375 587.304688 151.757812 C 595.046875 136.15625 602.359375 120.359375 609.246094 104.359375 C 616.128906 88.359375 622.574219 72.1875 628.578125 55.835938 C 607.96875 42.597656 586.355469 31.289062 563.730469 21.910156 C 541.105469 12.53125 517.828125 5.226562 493.898438 0 Z M 493.898438 0 "/><path style=" stroke:none;fill-rule:nonzero;fill:#147bd7;fill-opacity:1;" d="M 754.226562 181.417969 C 737.878906 187.429688 721.707031 193.882812 705.707031 200.769531 C 689.710938 207.660156 673.910156 214.980469 658.3125 222.726562 C 642.710938 230.476562 627.332031 238.640625 612.175781 247.226562 C 597.019531 255.808594 582.105469 264.796875 567.4375 274.191406 C 552.769531 283.582031 538.367188 293.367188 524.230469 303.542969 C 510.09375 313.71875 496.242188 324.269531 482.679688 335.199219 C 469.113281 346.125 455.859375 357.414062 442.90625 369.0625 C 429.957031 380.707031 417.332031 392.699219 405.03125 405.03125 C 422.449219 405.054688 439.855469 404.609375 457.25 403.683594 C 474.644531 402.761719 492.003906 401.371094 509.320312 399.503906 C 526.640625 397.636719 543.894531 395.304688 561.085938 392.5 C 578.277344 389.695312 595.382812 386.429688 612.394531 382.695312 C 629.410156 378.960938 646.308594 374.769531 663.097656 370.117188 C 679.882812 365.464844 696.53125 360.359375 713.039062 354.804688 C 729.546875 349.246094 745.894531 343.246094 762.078125 336.800781 C 778.257812 330.355469 794.253906 323.476562 810.0625 316.160156 C 804.835938 292.222656 797.53125 268.9375 788.152344 246.300781 C 778.773438 223.664062 767.464844 202.039062 754.226562 181.417969 Z M 754.226562 181.417969 "/><path style=" stroke:none;fill-rule:nonzero;fill:#147bd7;fill-opacity:1;" d="M 754.160156 628.710938 C 767.40625 608.082031 778.726562 586.445312 788.117188 563.796875 C 797.511719 541.152344 804.824219 517.851562 810.0625 493.902344 C 794.253906 486.589844 778.257812 479.707031 762.078125 473.261719 C 745.894531 466.816406 729.546875 460.816406 713.039062 455.261719 C 696.53125 449.703125 679.882812 444.597656 663.097656 439.945312 C 646.308594 435.296875 629.410156 431.101562 612.394531 427.371094 C 595.382812 423.636719 578.277344 420.367188 561.085938 417.566406 C 543.894531 414.761719 526.640625 412.425781 509.320312 410.5625 C 492.003906 408.695312 474.644531 407.300781 457.25 406.378906 C 439.855469 405.457031 422.449219 405.007812 405.03125 405.03125 C 417.328125 417.367188 429.949219 429.359375 442.898438 441.011719 C 455.84375 452.660156 469.097656 463.949219 482.660156 474.882812 C 496.21875 485.8125 510.066406 496.367188 524.203125 506.542969 C 538.335938 516.722656 552.734375 526.507812 567.402344 535.90625 C 582.066406 545.300781 596.976562 554.292969 612.128906 562.878906 C 627.285156 571.464844 642.660156 579.632812 658.257812 587.382812 C 673.855469 595.132812 689.652344 602.457031 705.648438 609.351562 C 721.640625 616.242188 737.8125 622.695312 754.160156 628.710938 Z M 754.160156 628.710938 "/></g></svg>